<mxfile modified="2022-05-24T05:24:45.688Z" host="app.diagrams.net" agent="5.0 (Windows NT 10.0; Win64; x64) AppleWebKit/537.36 (KHTML, like Gecko) Chrome/101.0.4951.67 Safari/537.36" etag="k244FSa9RzdTQRZOIsDs" version="18.1.1" type="github">
  <diagram id="Ht1M8jgEwFfnCIfOTk4-" name="Page-1">
    <mxGraphModel dx="1202" dy="1009" grid="1" gridSize="10" guides="1" tooltips="1" connect="1" arrows="1" fold="1" page="1" pageScale="1" pageWidth="1169" pageHeight="827" math="0" shadow="0">
      <root>
        <mxCell id="0" />
        <mxCell id="1" parent="0" />
        <mxCell id="UEzPUAAOIrF-is8g5C7q-74" value="AWS Cloud" style="points=[[0,0],[0.25,0],[0.5,0],[0.75,0],[1,0],[1,0.25],[1,0.5],[1,0.75],[1,1],[0.75,1],[0.5,1],[0.25,1],[0,1],[0,0.75],[0,0.5],[0,0.25]];outlineConnect=0;gradientColor=none;html=1;whiteSpace=wrap;fontSize=12;fontStyle=0;shape=mxgraph.aws4.group;grIcon=mxgraph.aws4.group_aws_cloud_alt;strokeColor=#232F3E;fillColor=none;verticalAlign=top;align=left;spacingLeft=30;fontColor=#232F3E;dashed=0;labelBackgroundColor=#ffffff;container=1;pointerEvents=0;collapsible=0;recursiveResize=0;" parent="1" vertex="1">
          <mxGeometry x="180" y="170" width="490" height="650" as="geometry" />
        </mxCell>
        <mxCell id="LYttSaNh0CoZD_ReAc8l-8" value="CloudFront" style="sketch=0;points=[[0,0,0],[0.25,0,0],[0.5,0,0],[0.75,0,0],[1,0,0],[0,1,0],[0.25,1,0],[0.5,1,0],[0.75,1,0],[1,1,0],[0,0.25,0],[0,0.5,0],[0,0.75,0],[1,0.25,0],[1,0.5,0],[1,0.75,0]];outlineConnect=0;fontColor=#232F3E;gradientColor=#945DF2;gradientDirection=north;fillColor=#5A30B5;strokeColor=#ffffff;dashed=0;verticalLabelPosition=middle;verticalAlign=middle;align=left;html=1;fontSize=12;fontStyle=0;aspect=fixed;shape=mxgraph.aws4.resourceIcon;resIcon=mxgraph.aws4.cloudfront;labelPosition=right;" vertex="1" parent="UEzPUAAOIrF-is8g5C7q-74">
          <mxGeometry x="210" y="10" width="70" height="70" as="geometry" />
        </mxCell>
        <mxCell id="LYttSaNh0CoZD_ReAc8l-11" value="Region" style="points=[[0,0],[0.25,0],[0.5,0],[0.75,0],[1,0],[1,0.25],[1,0.5],[1,0.75],[1,1],[0.75,1],[0.5,1],[0.25,1],[0,1],[0,0.75],[0,0.5],[0,0.25]];outlineConnect=0;gradientColor=none;html=1;whiteSpace=wrap;fontSize=12;fontStyle=0;container=1;pointerEvents=0;collapsible=0;recursiveResize=0;shape=mxgraph.aws4.group;grIcon=mxgraph.aws4.group_region;strokeColor=#147EBA;fillColor=none;verticalAlign=top;align=left;spacingLeft=30;fontColor=#147EBA;dashed=1;" vertex="1" parent="UEzPUAAOIrF-is8g5C7q-74">
          <mxGeometry x="10" y="100" width="470" height="540" as="geometry" />
        </mxCell>
        <mxCell id="LYttSaNh0CoZD_ReAc8l-14" value="ALB" style="sketch=0;outlineConnect=0;fontColor=#232F3E;gradientColor=none;fillColor=#4D27AA;strokeColor=none;dashed=0;verticalLabelPosition=middle;verticalAlign=middle;align=left;html=1;fontSize=12;fontStyle=0;aspect=fixed;pointerEvents=1;shape=mxgraph.aws4.application_load_balancer;labelPosition=right;" vertex="1" parent="LYttSaNh0CoZD_ReAc8l-11">
          <mxGeometry x="196" y="40" width="78" height="78" as="geometry" />
        </mxCell>
        <mxCell id="LYttSaNh0CoZD_ReAc8l-12" value="Availability Zone" style="fillColor=none;strokeColor=#147EBA;dashed=1;verticalAlign=top;fontStyle=0;fontColor=#147EBA;" vertex="1" parent="LYttSaNh0CoZD_ReAc8l-11">
          <mxGeometry x="10" y="250" width="220" height="100" as="geometry" />
        </mxCell>
        <mxCell id="LYttSaNh0CoZD_ReAc8l-32" style="edgeStyle=orthogonalEdgeStyle;rounded=0;orthogonalLoop=1;jettySize=auto;html=1;entryX=0;entryY=0.5;entryDx=0;entryDy=0;entryPerimeter=0;" edge="1" parent="LYttSaNh0CoZD_ReAc8l-11" source="LYttSaNh0CoZD_ReAc8l-18" target="LYttSaNh0CoZD_ReAc8l-30">
          <mxGeometry relative="1" as="geometry">
            <Array as="points">
              <mxPoint x="40" y="449" />
            </Array>
          </mxGeometry>
        </mxCell>
        <mxCell id="LYttSaNh0CoZD_ReAc8l-18" value="" style="sketch=0;outlineConnect=0;fontColor=#232F3E;gradientColor=none;fillColor=#D45B07;strokeColor=none;dashed=0;verticalLabelPosition=bottom;verticalAlign=top;align=center;html=1;fontSize=12;fontStyle=0;aspect=fixed;pointerEvents=1;shape=mxgraph.aws4.ecs_task;" vertex="1" parent="LYttSaNh0CoZD_ReAc8l-11">
          <mxGeometry x="21.5" y="290" width="37" height="48" as="geometry" />
        </mxCell>
        <mxCell id="LYttSaNh0CoZD_ReAc8l-33" style="edgeStyle=orthogonalEdgeStyle;rounded=0;orthogonalLoop=1;jettySize=auto;html=1;entryX=0;entryY=0.5;entryDx=0;entryDy=0;entryPerimeter=0;" edge="1" parent="LYttSaNh0CoZD_ReAc8l-11" source="LYttSaNh0CoZD_ReAc8l-19" target="LYttSaNh0CoZD_ReAc8l-30">
          <mxGeometry relative="1" as="geometry">
            <Array as="points">
              <mxPoint x="95" y="449" />
            </Array>
          </mxGeometry>
        </mxCell>
        <mxCell id="LYttSaNh0CoZD_ReAc8l-19" value="" style="sketch=0;outlineConnect=0;fontColor=#232F3E;gradientColor=none;fillColor=#D45B07;strokeColor=none;dashed=0;verticalLabelPosition=bottom;verticalAlign=top;align=center;html=1;fontSize=12;fontStyle=0;aspect=fixed;pointerEvents=1;shape=mxgraph.aws4.ecs_task;" vertex="1" parent="LYttSaNh0CoZD_ReAc8l-11">
          <mxGeometry x="76.5" y="290" width="37" height="48" as="geometry" />
        </mxCell>
        <mxCell id="LYttSaNh0CoZD_ReAc8l-34" style="edgeStyle=orthogonalEdgeStyle;rounded=0;orthogonalLoop=1;jettySize=auto;html=1;entryX=0;entryY=0.5;entryDx=0;entryDy=0;entryPerimeter=0;" edge="1" parent="LYttSaNh0CoZD_ReAc8l-11" source="LYttSaNh0CoZD_ReAc8l-20" target="LYttSaNh0CoZD_ReAc8l-30">
          <mxGeometry relative="1" as="geometry">
            <Array as="points">
              <mxPoint x="150" y="450" />
              <mxPoint x="176" y="450" />
              <mxPoint x="176" y="449" />
            </Array>
          </mxGeometry>
        </mxCell>
        <mxCell id="LYttSaNh0CoZD_ReAc8l-20" value="" style="sketch=0;outlineConnect=0;fontColor=#232F3E;gradientColor=none;fillColor=#D45B07;strokeColor=none;dashed=0;verticalLabelPosition=bottom;verticalAlign=top;align=center;html=1;fontSize=12;fontStyle=0;aspect=fixed;pointerEvents=1;shape=mxgraph.aws4.ecs_task;" vertex="1" parent="LYttSaNh0CoZD_ReAc8l-11">
          <mxGeometry x="131.5" y="290" width="37" height="48" as="geometry" />
        </mxCell>
        <mxCell id="LYttSaNh0CoZD_ReAc8l-35" value="" style="edgeStyle=orthogonalEdgeStyle;rounded=0;orthogonalLoop=1;jettySize=auto;html=1;" edge="1" parent="LYttSaNh0CoZD_ReAc8l-11" source="LYttSaNh0CoZD_ReAc8l-21" target="LYttSaNh0CoZD_ReAc8l-30">
          <mxGeometry relative="1" as="geometry">
            <Array as="points">
              <mxPoint x="200" y="374" />
              <mxPoint x="235" y="374" />
            </Array>
          </mxGeometry>
        </mxCell>
        <mxCell id="LYttSaNh0CoZD_ReAc8l-21" value="" style="sketch=0;outlineConnect=0;fontColor=#232F3E;gradientColor=none;fillColor=#D45B07;strokeColor=none;dashed=0;verticalLabelPosition=bottom;verticalAlign=top;align=center;html=1;fontSize=12;fontStyle=0;aspect=fixed;pointerEvents=1;shape=mxgraph.aws4.ecs_task;" vertex="1" parent="LYttSaNh0CoZD_ReAc8l-11">
          <mxGeometry x="181.5" y="290" width="37" height="48" as="geometry" />
        </mxCell>
        <mxCell id="LYttSaNh0CoZD_ReAc8l-25" value="Availability Zone" style="fillColor=none;strokeColor=#147EBA;dashed=1;verticalAlign=top;fontStyle=0;fontColor=#147EBA;" vertex="1" parent="LYttSaNh0CoZD_ReAc8l-11">
          <mxGeometry x="240" y="250" width="220" height="100" as="geometry" />
        </mxCell>
        <mxCell id="LYttSaNh0CoZD_ReAc8l-36" value="" style="edgeStyle=orthogonalEdgeStyle;rounded=0;orthogonalLoop=1;jettySize=auto;html=1;" edge="1" parent="LYttSaNh0CoZD_ReAc8l-11" source="LYttSaNh0CoZD_ReAc8l-26" target="LYttSaNh0CoZD_ReAc8l-30">
          <mxGeometry relative="1" as="geometry" />
        </mxCell>
        <mxCell id="LYttSaNh0CoZD_ReAc8l-26" value="" style="sketch=0;outlineConnect=0;fontColor=#232F3E;gradientColor=none;fillColor=#D45B07;strokeColor=none;dashed=0;verticalLabelPosition=bottom;verticalAlign=top;align=center;html=1;fontSize=12;fontStyle=0;aspect=fixed;pointerEvents=1;shape=mxgraph.aws4.ecs_task;" vertex="1" parent="LYttSaNh0CoZD_ReAc8l-11">
          <mxGeometry x="251.5" y="290" width="37" height="48" as="geometry" />
        </mxCell>
        <mxCell id="LYttSaNh0CoZD_ReAc8l-37" style="edgeStyle=orthogonalEdgeStyle;rounded=0;orthogonalLoop=1;jettySize=auto;html=1;entryX=1;entryY=0.25;entryDx=0;entryDy=0;entryPerimeter=0;" edge="1" parent="LYttSaNh0CoZD_ReAc8l-11" source="LYttSaNh0CoZD_ReAc8l-27" target="LYttSaNh0CoZD_ReAc8l-30">
          <mxGeometry relative="1" as="geometry">
            <Array as="points">
              <mxPoint x="320" y="430" />
              <mxPoint x="294" y="430" />
            </Array>
          </mxGeometry>
        </mxCell>
        <mxCell id="LYttSaNh0CoZD_ReAc8l-27" value="" style="sketch=0;outlineConnect=0;fontColor=#232F3E;gradientColor=none;fillColor=#D45B07;strokeColor=none;dashed=0;verticalLabelPosition=bottom;verticalAlign=top;align=center;html=1;fontSize=12;fontStyle=0;aspect=fixed;pointerEvents=1;shape=mxgraph.aws4.ecs_task;" vertex="1" parent="LYttSaNh0CoZD_ReAc8l-11">
          <mxGeometry x="306.5" y="290" width="37" height="48" as="geometry" />
        </mxCell>
        <mxCell id="LYttSaNh0CoZD_ReAc8l-39" style="edgeStyle=orthogonalEdgeStyle;rounded=0;orthogonalLoop=1;jettySize=auto;html=1;entryX=1;entryY=0.25;entryDx=0;entryDy=0;entryPerimeter=0;" edge="1" parent="LYttSaNh0CoZD_ReAc8l-11" source="LYttSaNh0CoZD_ReAc8l-28" target="LYttSaNh0CoZD_ReAc8l-30">
          <mxGeometry relative="1" as="geometry">
            <Array as="points">
              <mxPoint x="380" y="430" />
            </Array>
          </mxGeometry>
        </mxCell>
        <mxCell id="LYttSaNh0CoZD_ReAc8l-28" value="" style="sketch=0;outlineConnect=0;fontColor=#232F3E;gradientColor=none;fillColor=#D45B07;strokeColor=none;dashed=0;verticalLabelPosition=bottom;verticalAlign=top;align=center;html=1;fontSize=12;fontStyle=0;aspect=fixed;pointerEvents=1;shape=mxgraph.aws4.ecs_task;" vertex="1" parent="LYttSaNh0CoZD_ReAc8l-11">
          <mxGeometry x="361.5" y="290" width="37" height="48" as="geometry" />
        </mxCell>
        <mxCell id="LYttSaNh0CoZD_ReAc8l-40" style="edgeStyle=orthogonalEdgeStyle;rounded=0;orthogonalLoop=1;jettySize=auto;html=1;entryX=1;entryY=0.25;entryDx=0;entryDy=0;entryPerimeter=0;" edge="1" parent="LYttSaNh0CoZD_ReAc8l-11" source="LYttSaNh0CoZD_ReAc8l-29" target="LYttSaNh0CoZD_ReAc8l-30">
          <mxGeometry relative="1" as="geometry">
            <Array as="points">
              <mxPoint x="430" y="430" />
              <mxPoint x="343" y="430" />
            </Array>
          </mxGeometry>
        </mxCell>
        <mxCell id="LYttSaNh0CoZD_ReAc8l-29" value="" style="sketch=0;outlineConnect=0;fontColor=#232F3E;gradientColor=none;fillColor=#D45B07;strokeColor=none;dashed=0;verticalLabelPosition=bottom;verticalAlign=top;align=center;html=1;fontSize=12;fontStyle=0;aspect=fixed;pointerEvents=1;shape=mxgraph.aws4.ecs_task;" vertex="1" parent="LYttSaNh0CoZD_ReAc8l-11">
          <mxGeometry x="411.5" y="290" width="37" height="48" as="geometry" />
        </mxCell>
        <mxCell id="LYttSaNh0CoZD_ReAc8l-30" value="EFS" style="sketch=0;points=[[0,0,0],[0.25,0,0],[0.5,0,0],[0.75,0,0],[1,0,0],[0,1,0],[0.25,1,0],[0.5,1,0],[0.75,1,0],[1,1,0],[0,0.25,0],[0,0.5,0],[0,0.75,0],[1,0.25,0],[1,0.5,0],[1,0.75,0]];outlineConnect=0;fontColor=#232F3E;gradientColor=#60A337;gradientDirection=north;fillColor=#277116;strokeColor=#ffffff;dashed=0;verticalLabelPosition=middle;verticalAlign=middle;align=left;html=1;fontSize=12;fontStyle=0;aspect=fixed;shape=mxgraph.aws4.resourceIcon;resIcon=mxgraph.aws4.efs_standard;labelPosition=right;" vertex="1" parent="LYttSaNh0CoZD_ReAc8l-11">
          <mxGeometry x="196" y="410" width="78" height="78" as="geometry" />
        </mxCell>
        <mxCell id="LYttSaNh0CoZD_ReAc8l-22" value="Fargate&lt;br&gt;" style="sketch=0;points=[[0,0,0],[0.25,0,0],[0.5,0,0],[0.75,0,0],[1,0,0],[0,1,0],[0.25,1,0],[0.5,1,0],[0.75,1,0],[1,1,0],[0,0.25,0],[0,0.5,0],[0,0.75,0],[1,0.25,0],[1,0.5,0],[1,0.75,0]];outlineConnect=0;fontColor=#232F3E;gradientColor=#F78E04;gradientDirection=north;fillColor=#D05C17;strokeColor=#ffffff;dashed=0;verticalLabelPosition=middle;verticalAlign=middle;align=left;html=1;fontSize=12;fontStyle=0;aspect=fixed;shape=mxgraph.aws4.resourceIcon;resIcon=mxgraph.aws4.fargate;labelPosition=right;" vertex="1" parent="LYttSaNh0CoZD_ReAc8l-11">
          <mxGeometry x="196" y="190" width="78" height="78" as="geometry" />
        </mxCell>
        <mxCell id="LYttSaNh0CoZD_ReAc8l-5" value="internet" style="sketch=0;outlineConnect=0;fontColor=#232F3E;gradientColor=none;fillColor=#232F3D;strokeColor=none;dashed=0;verticalLabelPosition=middle;verticalAlign=middle;align=left;html=1;fontSize=12;fontStyle=0;aspect=fixed;pointerEvents=1;shape=mxgraph.aws4.internet;labelPosition=right;" vertex="1" parent="1">
          <mxGeometry x="386" y="50" width="78" height="48" as="geometry" />
        </mxCell>
      </root>
    </mxGraphModel>
  </diagram>
</mxfile>
